<?xml version="1.0" encoding="UTF-8"?>
<!DOCTYPE svg PUBLIC "-//W3C//DTD SVG 1.1//EN" "http://www.w3.org/Graphics/SVG/1.1/DTD/svg11.dtd">
<svg xmlns="http://www.w3.org/2000/svg" version="1.1" width="2200px" height="2200px" style="shape-rendering:geometricPrecision; text-rendering:geometricPrecision; image-rendering:optimizeQuality; fill-rule:evenodd; clip-rule:evenodd" xmlns:xlink="http://www.w3.org/1999/xlink">
<g><path style="opacity:1" fill="#d9b841" d="M 681.5,273.5 C 995.501,273.167 1309.5,273.5 1623.5,274.5C 1649.52,308.706 1675.19,343.206 1700.5,378C 1723.56,377.848 1746.39,378.682 1769,380.5C 1769.82,486.188 1769.66,591.855 1768.5,697.5C 1803.5,697.5 1838.5,697.5 1873.5,697.5C 1873.5,717.167 1873.5,736.833 1873.5,756.5C 1855.83,756.5 1838.17,756.5 1820.5,756.5C 1820.5,791.833 1820.5,827.167 1820.5,862.5C 1803.17,862.5 1785.83,862.5 1768.5,862.5C 1769.83,1109.49 1769.83,1356.49 1768.5,1603.5C 1803.5,1603.5 1838.5,1603.5 1873.5,1603.5C 1873.5,1623.17 1873.5,1642.83 1873.5,1662.5C 1855.83,1662.5 1838.17,1662.5 1820.5,1662.5C 1820.5,1715.17 1820.5,1767.83 1820.5,1820.5C 1774.17,1820.5 1727.83,1820.5 1681.5,1820.5C 1682.04,1824.54 1681.21,1828.21 1679,1831.5C 1678.67,1834.5 1678.33,1837.5 1678,1840.5C 1677.58,1841.67 1676.91,1842.67 1676,1843.5C 1675.05,1850.98 1673.72,1858.32 1672,1865.5C 1670.42,1871.58 1668.42,1877.58 1666,1883.5C 1665.67,1886.5 1665.33,1889.5 1665,1892.5C 1661.47,1903.32 1658.64,1914.32 1656.5,1925.5C 1587.16,1925.83 1517.83,1925.5 1448.5,1924.5C 1446.98,1918.39 1445.15,1912.39 1443,1906.5C 1443.08,1902.15 1442.08,1898.15 1440,1894.5C 1437.74,1883.12 1435.41,1871.79 1433,1860.5C 1430.52,1854.65 1428.52,1848.65 1427,1842.5C 1426.67,1839.5 1426.33,1836.5 1426,1833.5C 1423.73,1829.53 1422.9,1825.19 1423.5,1820.5C 1243.17,1820.33 1062.83,1820.5 882.5,1821C 881.452,1822.76 881.452,1824.59 882.5,1826.5C 882.007,1829.49 880.84,1832.15 879,1834.5C 878.667,1837.5 878.333,1840.5 878,1843.5C 877.581,1844.67 876.915,1845.67 876,1846.5C 875.049,1853.98 873.716,1861.32 872,1868.5C 870.482,1874.69 868.482,1880.69 866,1886.5C 863.819,1899.65 860.986,1912.65 857.5,1925.5C 788.167,1925.5 718.833,1925.5 649.5,1925.5C 647.531,1918.19 645.364,1910.86 643,1903.5C 642.667,1900.5 642.333,1897.5 642,1894.5C 641.581,1893.33 640.915,1892.33 640,1891.5C 637.732,1879.82 635.399,1868.16 633,1856.5C 630.085,1852.35 628.751,1847.68 629,1842.5C 628.581,1841.33 627.915,1840.33 627,1839.5C 626.423,1832.99 625.256,1826.82 623.5,1821C 577.168,1820.5 530.835,1820.33 484.5,1820.5C 484.5,1767.83 484.5,1715.17 484.5,1662.5C 466.488,1662.83 448.488,1662.5 430.5,1661.5C 429.347,1642.88 429.18,1624.21 430,1605.5C 465.758,1604 501.591,1602.83 537.5,1602C 536.167,1427.2 536.167,1252.36 537.5,1077.5C 537.291,1076.91 536.957,1076.41 536.5,1076C 488.167,1075.67 439.833,1075.33 391.5,1075C 377.756,1070.95 365.089,1064.61 353.5,1056C 348,1050.17 342.5,1044.33 337,1038.5C 335.402,1035.33 334.068,1032 333,1028.5C 332,1027.83 331,1027.17 330,1026.5C 329.667,1024.17 329.333,1021.83 329,1019.5C 328.632,1018.09 327.799,1017.09 326.5,1016.5C 325.167,1000.83 325.167,985.167 326.5,969.5C 329.732,962.083 333.232,954.749 337,947.5C 342.82,940.213 349.32,933.547 356.5,927.5C 364.243,922.531 372.243,918.031 380.5,914C 383.167,913.667 385.833,913.333 388.5,913C 389.167,912.333 389.833,911.667 390.5,911C 439.167,910.667 487.833,910.333 536.5,910C 536.5,894.333 536.5,878.667 536.5,863C 519.17,862.5 501.837,862.333 484.5,862.5C 484.5,827.167 484.5,791.833 484.5,756.5C 466.488,756.833 448.488,756.5 430.5,755.5C 429.167,736.5 429.167,717.5 430.5,698.5C 466.16,697.5 501.827,697.167 537.5,697.5C 536.506,591.195 536.173,484.862 536.5,378.5C 559.169,378.667 581.836,378.5 604.5,378C 629.682,344.509 655.016,311.009 680.5,277.5C 681.246,276.264 681.579,274.93 681.5,273.5 Z M 713.5,330.5 C 1006.17,330.333 1298.83,330.5 1591.5,331C 1602.94,346.938 1614.94,362.438 1627.5,377.5C 1610.18,378.5 1592.85,378.833 1575.5,378.5C 1575.5,397.833 1575.5,417.167 1575.5,436.5C 1620.41,436.17 1665.24,436.503 1710,437.5C 1709.17,524.141 1709.33,610.807 1710.5,697.5C 1338.83,697.5 967.167,697.5 595.5,697.5C 595.5,610.5 595.5,523.5 595.5,436.5C 906.5,436.5 1217.5,436.5 1528.5,436.5C 1528.5,417.167 1528.5,397.833 1528.5,378.5C 1245.17,378.5 961.833,378.5 678.5,378.5C 690.056,362.582 701.722,346.582 713.5,330.5 Z M 771.5,543.5 C 784.596,540.828 794.43,545.162 801,556.5C 801.699,560.183 802.865,563.683 804.5,567C 802.539,570.215 801.373,573.715 801,577.5C 798.676,578.807 797.343,580.807 797,583.5C 791.573,586.534 785.907,589.2 780,591.5C 773.834,589.35 768.001,586.683 762.5,583.5C 754.533,572.277 754.533,561.11 762.5,550C 765.666,547.916 768.666,545.75 771.5,543.5 Z M 1262.5,543.5 C 1287.17,543.5 1311.83,543.5 1336.5,543.5C 1336.5,559.5 1336.5,575.5 1336.5,591.5C 1311.83,591.667 1287.16,591.5 1262.5,591C 1262.47,575.375 1262.47,559.542 1262.5,543.5 Z M 1394.5,543.5 C 1419.5,543.5 1444.5,543.5 1469.5,543.5C 1468.33,559.188 1468.17,574.855 1469,590.5C 1456.74,591.162 1444.41,591.495 1432,591.5C 1419.59,591.495 1407.26,591.162 1395,590.5C 1395.83,574.855 1395.67,559.188 1394.5,543.5 Z M 1527.5,543.5 C 1552.83,543.5 1578.17,543.5 1603.5,543.5C 1603.5,559.5 1603.5,575.5 1603.5,591.5C 1578.5,591.667 1553.5,591.5 1528.5,591C 1528.82,575.268 1528.48,559.435 1527.5,543.5 Z M 542.5,756.5 C 949.167,756.5 1355.83,756.5 1762.5,756.5C 1762.5,772.167 1762.5,787.833 1762.5,803.5C 1355.83,803.833 949.166,803.5 542.5,802.5C 543.818,787.167 543.818,771.833 542.5,756.5 Z M 595.5,862.5 C 700.5,862.5 805.5,862.5 910.5,862.5C 910.5,895.833 910.5,929.167 910.5,962.5C 876.833,962.5 843.167,962.5 809.5,962.5C 809.825,945.256 809.492,928.09 808.5,911C 737.501,910.5 666.501,910.333 595.5,910.5C 595.5,894.5 595.5,878.5 595.5,862.5 Z M 969.5,862.5 C 1091.83,862.5 1214.17,862.5 1336.5,862.5C 1336.5,878.5 1336.5,894.5 1336.5,910.5C 1213.83,910.5 1091.17,910.5 968.5,910.5C 969.492,894.386 969.825,878.386 969.5,862.5 Z M 1394.5,862.5 C 1499.83,862.5 1605.17,862.5 1710.5,862.5C 1709.17,1109.5 1709.17,1356.5 1710.5,1603.5C 1692.17,1603.5 1673.83,1603.5 1655.5,1603.5C 1655.17,1623.08 1655.51,1642.58 1656.5,1662C 1691.83,1662.5 1727.17,1662.67 1762.5,1662.5C 1762.5,1695.83 1762.5,1729.17 1762.5,1762.5C 1356.17,1762.67 949.833,1762.5 543.5,1762C 543.48,1728.98 543.48,1695.82 543.5,1662.5C 898.167,1662.5 1252.83,1662.5 1607.5,1662.5C 1607.5,1642.83 1607.5,1623.17 1607.5,1603.5C 1511.5,1603.83 1415.5,1603.5 1319.5,1602.5C 1327.58,1596.6 1335.24,1590.1 1342.5,1583C 1349.2,1579.46 1356.2,1576.8 1363.5,1575C 1366.83,1573.33 1370.17,1571.67 1373.5,1570C 1375.5,1569.67 1377.5,1569.33 1379.5,1569C 1383.69,1566.63 1388.02,1564.63 1392.5,1563C 1395.63,1563.05 1398.3,1562.05 1400.5,1560C 1403.63,1560.05 1406.3,1559.05 1408.5,1557C 1411.63,1557.05 1414.3,1556.05 1416.5,1554C 1418.5,1553.67 1420.5,1553.33 1422.5,1553C 1426.69,1550.63 1431.02,1548.63 1435.5,1547C 1438.63,1547.05 1441.3,1546.05 1443.5,1544C 1446.63,1544.05 1449.3,1543.05 1451.5,1541C 1455.69,1541.03 1459.35,1539.7 1462.5,1537C 1475.96,1532.75 1489.29,1528.09 1502.5,1523C 1552,1500.55 1578.67,1462.05 1582.5,1407.5C 1581.53,1396.75 1580.03,1386.09 1578,1375.5C 1577.09,1374.67 1576.42,1373.67 1576,1372.5C 1575.22,1366.97 1573.89,1361.64 1572,1356.5C 1570.28,1353.63 1568.28,1350.97 1566,1348.5C 1564.38,1344.86 1562.71,1341.19 1561,1337.5C 1554.95,1331.1 1549.12,1324.44 1543.5,1317.5C 1536.4,1312.15 1529.4,1306.65 1522.5,1301C 1516.43,1298.91 1510.76,1296.07 1505.5,1292.5C 1498.2,1289.9 1490.86,1287.4 1483.5,1285C 1469.12,1284.53 1454.79,1283.7 1440.5,1282.5C 1434.45,1282.52 1428.45,1282.85 1422.5,1283.5C 1421.83,1265.6 1421.16,1247.77 1420.5,1230C 1358.83,1229.5 1297.17,1229.33 1235.5,1229.5C 1236.83,1178.17 1236.83,1126.83 1235.5,1075.5C 1266.17,1075.67 1296.84,1075.5 1327.5,1075C 1361.89,1066.2 1384.06,1044.7 1394,1010.5C 1395.8,961.164 1395.96,911.831 1394.5,862.5 Z M 400.5,969.5 C 517.169,969.167 633.835,969.5 750.5,970.5C 749.167,985.5 749.167,1000.5 750.5,1015.5C 634.168,1016.67 517.835,1016.83 401.5,1016C 396.7,1014.59 392.533,1012.09 389,1008.5C 386.478,1003.44 384.311,998.269 382.5,993C 384.435,987.793 386.602,982.626 389,977.5C 392.56,974.201 396.394,971.534 400.5,969.5 Z M 968.5,969.5 C 1091.17,969.5 1213.83,969.5 1336.5,969.5C 1336.67,979.172 1336.5,988.839 1336,998.5C 1334.21,1002.54 1332.04,1006.37 1329.5,1010C 1325.8,1012.49 1321.8,1014.49 1317.5,1016C 1207.5,1016.67 1097.5,1016.67 987.5,1016C 983.179,1014.42 979.179,1012.25 975.5,1009.5C 973.384,1005.91 971.551,1002.24 970,998.5C 969.755,988.8 969.255,979.134 968.5,969.5 Z M 809.5,1022.5 C 844.795,1023.83 879.795,1023.83 914.5,1022.5C 915.478,1022.98 916.311,1023.64 917,1024.5C 928.371,1050.73 947.871,1066.9 975.5,1073C 976.167,1073.67 976.833,1074.33 977.5,1075C 1008.17,1075.33 1038.83,1075.67 1069.5,1076C 1069.96,1076.41 1070.29,1076.91 1070.5,1077.5C 1069.17,1127.83 1069.17,1178.17 1070.5,1228.5C 1008.5,1229.5 946.504,1229.83 884.5,1229.5C 884.333,1295.5 884.5,1361.5 885,1427.5C 886.775,1439.32 889.275,1450.99 892.5,1462.5C 908.294,1519.12 939.627,1565.95 986.5,1603C 856.167,1603.5 725.834,1603.67 595.5,1603.5C 595.5,1427.5 595.5,1251.5 595.5,1075.5C 666.501,1075.67 737.501,1075.5 808.5,1075C 809.492,1057.58 809.825,1040.08 809.5,1022.5 Z M 1129.5,1075.5 C 1145.66,1075.02 1161.66,1075.52 1177.5,1077C 1176.87,1077.75 1176.37,1078.58 1176,1079.5C 1175.33,1128.5 1175.33,1177.5 1176,1226.5C 1177.49,1227.25 1177.65,1228.09 1176.5,1229C 1160.49,1229.83 1144.49,1229.67 1128.5,1228.5C 1129.49,1177.39 1129.82,1126.39 1129.5,1075.5 Z M 942.5,1288.5 C 1082.5,1288.33 1222.5,1288.5 1362.5,1289C 1362.83,1289.33 1363.17,1289.67 1363.5,1290C 1362.67,1332.76 1362.17,1375.6 1362,1418.5C 1346.67,1505.8 1297.5,1564.3 1214.5,1594C 1211.5,1594.33 1208.5,1594.67 1205.5,1595C 1204.83,1595.67 1204.17,1596.33 1203.5,1597C 1198.24,1596.93 1193.24,1597.93 1188.5,1600C 1110.43,1610.48 1045.26,1586.98 993,1529.5C 983.15,1517.11 974.316,1504.11 966.5,1490.5C 961.816,1479.94 957.316,1469.27 953,1458.5C 950.643,1452.77 949.31,1446.77 949,1440.5C 948.085,1439.67 947.419,1438.67 947,1437.5C 946.667,1432.83 946.333,1428.17 946,1423.5C 945.581,1422.33 944.915,1421.33 944,1420.5C 943.818,1376.47 943.318,1332.47 942.5,1288.5 Z M 1421.5,1342.5 C 1439.12,1343.31 1456.79,1343.81 1474.5,1344C 1486.95,1348.15 1497.78,1354.98 1507,1364.5C 1510.83,1369.3 1514.16,1374.3 1517,1379.5C 1519.51,1386.96 1521.51,1394.63 1523,1402.5C 1523.67,1406.5 1523.67,1410.5 1523,1414.5C 1516.24,1445.26 1497.74,1464.42 1467.5,1472C 1466.83,1472.67 1466.17,1473.33 1465.5,1474C 1457.59,1477.09 1449.59,1479.76 1441.5,1482C 1438.96,1484.09 1435.96,1485.09 1432.5,1485C 1431.83,1485.67 1431.17,1486.33 1430.5,1487C 1420.87,1489.95 1411.53,1493.45 1402.5,1497.5C 1401.83,1497.17 1401.17,1496.83 1400.5,1496.5C 1400.91,1494.01 1402.08,1492.01 1404,1490.5C 1406.75,1480.04 1410.09,1469.71 1414,1459.5C 1414.08,1455.53 1415.08,1451.86 1417,1448.5C 1417.33,1443.5 1417.67,1438.5 1418,1433.5C 1418.29,1431.96 1418.96,1430.62 1420,1429.5C 1421.11,1400.51 1421.61,1371.51 1421.5,1342.5 Z M 684.5,1820.5 C 730.5,1820.5 776.5,1820.5 822.5,1820.5C 818.586,1834.13 814.753,1847.8 811,1861.5C 810.503,1863.81 810.337,1866.14 810.5,1868.5C 772.165,1868.67 733.832,1868.5 695.5,1868C 694.991,1864.44 694.491,1860.61 694,1856.5C 693.085,1855.67 692.419,1854.67 692,1853.5C 691.824,1850.12 691.324,1846.78 690.5,1843.5C 689.914,1843.29 689.414,1842.96 689,1842.5C 688.667,1839.17 688.333,1835.83 688,1832.5C 685.882,1828.83 684.716,1824.83 684.5,1820.5 Z M 1483.5,1820.5 C 1529.17,1820.33 1574.83,1820.5 1620.5,1821C 1620.96,1821.41 1621.29,1821.91 1621.5,1822.5C 1620.97,1826.33 1619.64,1829.83 1617.5,1833C 1615.4,1840.31 1613.9,1847.81 1613,1855.5C 1612.09,1856.33 1611.42,1857.33 1611,1858.5C 1610.5,1861.82 1610.33,1865.15 1610.5,1868.5C 1571.83,1868.5 1533.17,1868.5 1494.5,1868.5C 1492.59,1857.4 1490.43,1846.4 1488,1835.5C 1486.03,1832.15 1485.03,1828.49 1485,1824.5C 1482.99,1823.43 1482.49,1822.1 1483.5,1820.5 Z"/></g>
<g><path style="opacity:1" fill="#d9b841" d="M 762.5,484.5 C 798.097,480.355 826.764,492.355 848.5,520.5C 850.732,524.749 853.232,528.749 856,532.5C 858.275,538.654 860.275,544.988 862,551.5C 862.667,561.5 862.667,571.5 862,581.5C 860.031,585.196 859.031,589.196 859,593.5C 855.189,599.789 851.855,606.456 849,613.5C 844.522,617.647 840.355,622.147 836.5,627C 832.242,629.293 828.576,632.293 825.5,636C 788.903,656.769 754.57,653.602 722.5,626.5C 716.372,618.91 710.538,611.244 705,603.5C 701.942,597.45 699.609,591.117 698,584.5C 692.46,538.235 710.96,506.068 753.5,488C 755.5,487.667 757.5,487.333 759.5,487C 760.942,486.623 761.942,485.79 762.5,484.5 Z M 771.5,543.5 C 768.666,545.75 765.666,547.916 762.5,550C 754.533,561.11 754.533,572.277 762.5,583.5C 768.001,586.683 773.834,589.35 780,591.5C 785.907,589.2 791.573,586.534 797,583.5C 797.343,580.807 798.676,578.807 801,577.5C 801.373,573.715 802.539,570.215 804.5,567C 802.865,563.683 801.699,560.183 801,556.5C 794.43,545.162 784.596,540.828 771.5,543.5 Z"/></g>
<g><path style="opacity:1" fill="#d9b841" d="M 1204.5,484.5 C 1357.17,484.5 1509.83,484.5 1662.5,484.5C 1662.5,539.5 1662.5,594.5 1662.5,649.5C 1509.83,649.667 1357.17,649.5 1204.5,649C 1203.17,594.167 1203.17,539.333 1204.5,484.5 Z M 1262.5,543.5 C 1262.47,559.542 1262.47,575.375 1262.5,591C 1287.16,591.5 1311.83,591.667 1336.5,591.5C 1336.5,575.5 1336.5,559.5 1336.5,543.5C 1311.83,543.5 1287.17,543.5 1262.5,543.5 Z M 1394.5,543.5 C 1395.67,559.188 1395.83,574.855 1395,590.5C 1407.26,591.162 1419.59,591.495 1432,591.5C 1444.41,591.495 1456.74,591.162 1469,590.5C 1468.17,574.855 1468.33,559.188 1469.5,543.5C 1444.5,543.5 1419.5,543.5 1394.5,543.5 Z M 1527.5,543.5 C 1528.48,559.435 1528.82,575.268 1528.5,591C 1553.5,591.5 1578.5,591.667 1603.5,591.5C 1603.5,575.5 1603.5,559.5 1603.5,543.5C 1578.17,543.5 1552.83,543.5 1527.5,543.5 Z"/></g>
<g><path style="opacity:1" fill="#d9b841" d="M 910.5,536.5 C 929.836,536.333 949.17,536.5 968.5,537C 969.493,556.424 969.826,575.924 969.5,595.5C 949.833,595.5 930.167,595.5 910.5,595.5C 910.5,575.833 910.5,556.167 910.5,536.5 Z"/></g>
<g><path style="opacity:1" fill="#d9b841" d="M 1017.5,536.5 C 1036.83,536.5 1056.17,536.5 1075.5,536.5C 1075.5,556.167 1075.5,575.833 1075.5,595.5C 1055.92,595.826 1036.42,595.493 1017,594.5C 1016.18,575.093 1016.35,555.76 1017.5,536.5 Z"/></g>
</svg>
